<?xml version="1.0" encoding="UTF-8"?><svg id="Layer_2" xmlns="http://www.w3.org/2000/svg" viewBox="0 0 1071.22 777.54"><defs><style>.cls-1{fill:#fff;}.cls-2{fill:#142664;}.cls-3{fill:#00e6b3;}.cls-4{fill:#ff2e93;}</style></defs><g id="Layer_1-2"><g transform="translate(232.5 587.5) rotate(0.0 960.0 497.5) translate(0.0 0.0) scale(2.972136222910217 2.9643444478871226)"><g><path class="cls-2" d="M576.62,244.06h-52.2c-3.15,0-6.18,1.26-8.45,3.52s-3.53,5.28-3.53,8.43,1.26,6.16,3.53,8.43,5.3,3.52,8.45,3.52h52.2c3.15,0,6.18-1.26,8.45-3.52,2.27-2.26,3.53-5.28,3.53-8.43s-1.26-6.16-3.53-8.43-5.3-3.52-8.45-3.52Z"/><path class="cls-2" d="M429.72,554.06h36.94c2.27,0,4.41,.88,5.93,2.52,1.64,1.63,2.52,3.77,2.52,5.91,0,2.26-.88,4.4-2.52,5.91-1.64,1.63-3.78,2.52-5.93,2.52h-36.94c-2.27,0-4.41-.88-5.93-2.52-1.64-1.63-2.52-3.77-2.52-5.91,0-2.26,.88-4.4,2.52-5.91,1.51-1.63,3.66-2.52,5.93-2.52Z"/><path class="cls-2" d="M62.29,332.47h36.94c2.27,0,4.41,.88,5.93,2.52,1.64,1.63,2.52,3.77,2.52,5.91,0,2.26-.88,4.4-2.52,5.91-1.64,1.63-3.78,2.52-5.93,2.52H62.29c-2.27,0-4.41-.88-5.93-2.52-1.64-1.63-2.52-3.77-2.52-5.91,0-2.26,.88-4.4,2.52-5.91,1.51-1.63,3.66-2.52,5.93-2.52h0Z"/><path class="cls-2" d="M672.57,570.41h48.92c4.16,0,8.32,1.63,11.22,4.65,3.03,3.02,4.67,7.04,4.67,11.19s-1.64,8.3-4.67,11.19c-3.03,3.02-7.06,4.65-11.22,4.65h-48.92c-4.16,0-8.32-1.63-11.22-4.65-3.03-3.02-4.67-7.04-4.67-11.19s1.64-8.3,4.67-11.19c2.9-3.02,6.94-4.65,11.22-4.65Z"/><ellipse class="cls-2" cx="485.45" cy="227.46" rx="9.08" ry="9.05"/><ellipse class="cls-2" cx="32.28" cy="500.62" rx="9.08" ry="9.05"/><ellipse class="cls-2" cx="774.2" cy="613.68" rx="9.08" ry="9.05"/><ellipse class="cls-2" cx="802.82" cy="506.53" rx="11.73" ry="11.7"/><ellipse class="cls-2" cx="120.29" cy="310.47" rx="11.73" ry="11.7"/><ellipse class="cls-2" cx="531.37" cy="600.84" rx="17.65" ry="17.61"/><path class="cls-2" d="M784.54,394.22c-8.83-8.68-20.68-13.58-33.04-13.58h-50.31c-1.89,0-3.66-.63-5.04-2.01-1.26-1.38-2.02-3.14-2.02-5.03s.63-3.65,2.02-5.03c1.39-1.26,3.15-2.01,5.04-2.01h35.11c2.98,0,5.93-1.03,8.08-3.09,2.36-2.25,3.56-5.24,3.46-8.5-.09-2.67-1.16-5.28-2.99-7.23-2.18-2.33-5.07-3.56-8.23-3.56h-48.8c-3.28,0-6.43-1.26-8.83-3.65-2.4-2.39-3.66-5.53-3.66-8.8s1.26-6.41,3.66-8.8c2.4-2.39,5.55-3.65,8.83-3.65h15.38c4.79,0,9.46-1.89,12.86-5.28,3.4-3.4,5.3-8.05,5.3-12.83s-1.89-9.43-5.3-12.83-8.07-5.28-12.86-5.28H344.12s-.05,0-.08,0c-11.38,0-20.61-9.2-20.61-20.55s9.11-20.43,20.39-20.55c6.79-.07,12.62-5.29,12.97-12.05,.38-7.34-5.47-13.41-12.75-13.41H176.12c-7.54,0-13.66,6.1-13.66,13.62s6.11,13.62,13.66,13.62h7.88c1.51,0,3.15,.63,4.29,1.76s1.77,2.64,1.77,4.28c0,1.51-.63,3.14-1.77,4.28s-2.65,1.76-4.29,1.76h-17.67c-13.62,0-25.22,10.57-25.71,24.14-.51,14.25,10.93,25.97,25.1,25.97h.01v.04h100.7c1.51,0,3.15,.63,4.29,1.76s1.77,2.64,1.77,4.28c0,1.51-.63,3.14-1.77,4.28-1.13,1.13-2.65,1.76-4.29,1.76h-54.98c-4.67,0-9.08,1.89-12.36,5.16s-5.17,7.67-5.17,12.32,1.89,9.05,5.17,12.32c3.28,3.27,7.69,5.16,12.36,5.16h5.8v.13h32.15c1.89,0,3.66,.63,5.04,2.01,1.26,1.38,2.02,3.14,2.02,5.03s-.63,3.65-2.02,5.03c-1.39,1.26-3.15,2.01-5.04,2.01h-114.36c-3.78,0-7.44,1.51-10.21,4.28-2.77,2.64-4.29,6.41-4.29,10.19s1.51,7.42,4.29,10.19c2.65,2.77,6.43,4.28,10.21,4.28h22.57c3.28,0,6.43,1.26,8.83,3.65,2.4,2.39,3.66,5.53,3.66,8.8s-1.26,6.41-3.66,8.8-5.55,3.65-8.83,3.65H27.87c-7.31,0-14.5,3.02-19.67,8.17-5.3,5.16-8.2,12.2-8.2,19.62s3.03,14.46,8.2,19.62c5.17,5.28,12.23,8.17,19.67,8.17H120.54c5.04,0,9.96,2.01,13.49,5.53,3.53,3.65,5.55,8.43,5.55,13.46s-2.02,9.94-5.55,13.46c-3.66,3.52-8.45,5.53-13.49,5.53h-21.56c-3.4,.25-6.68,1.76-9.08,4.15-2.77,2.64-4.29,6.41-4.29,10.19s1.51,7.42,4.29,10.19c2.65,2.64,6.18,4.15,9.84,4.28l20.3-.13c14.84,0,26.87,12,26.87,26.79s-12.03,26.79-26.87,26.79H38.26c-11.56,0-20.94,9.35-20.94,20.88s9.37,20.88,20.94,20.88H390.57c9.89,0,17.91-8,17.91-17.86s-8.02-17.86-17.91-17.86h-31.31c-18.26,0-33.06-14.76-33.06-32.97s14.8-32.97,33.06-32.97c.27,0,.54,.01,.8,.02h351.98c5.04,0,9.84-2.01,13.37-5.53,3.53-3.52,5.55-8.3,5.55-13.33s-2.02-9.81-5.55-13.33c-2.9-2.77-6.43-4.65-10.34-5.28h-39.59c-3.4,0-6.68-1.38-9.08-3.77-2.4-2.39-3.78-5.66-3.78-9.05s1.39-6.67,3.78-9.05c2.4-2.39,5.67-3.77,9.08-3.77l76.03-.13c12.36,0,24.34-4.9,33.04-13.58,8.7-8.8,13.62-20.62,13.62-32.95s-4.92-24.27-13.62-32.95h0Z"/></g></g><g transform="translate(1065.0 75.0) rotate(7.137718763927288 28.75 132.5)  scale(3.0798071772897693 3.140926869740429)"><path class="cls-4" d="M353.86,107.21l29.47-97.57c1.05-4.17-1.34-8.23-5.41-9.41-4.08-1.05-8.08,1.41-9.25,5.56l-21.82,99.6c-.51,1.95,.69,3.98,2.6,4.49,1.91,.51,3.91-.72,4.42-2.67h0Z"/></g><g transform="translate(1127.5 100.0) rotate(27.123829471995354 28.75 133.75)  scale(3.0798071772897693 3.1705582553040177)"><path class="cls-4" d="M363.08,111.73l61.47-82.46c2.43-3.59,1.59-8.26-1.83-10.76-3.48-2.39-8.08-1.42-10.63,2.11l-54.99,86.99c-1.15,1.68-.73,4.01,.89,5.14,1.62,1.13,3.92,.65,5.08-1.03h0Z"/></g><g transform="translate(477.5 222.5) rotate(0.0 390.0 231.25)  scale(2.962760381056566 2.9530449884432186)"><path class="cls-1" d="M287,255.46H132.15l.13-.75c1.76-33.58,10.94-55.75,35.7-59.38,76.67-11.15,78.31,39.21,118.65,60.01l.38,.13Z"/><path class="cls-3" d="M326.97,79.06c-.38-1.5-.25-3.13,.25-5.51,.88-3.51,1.13-5.89-.13-8.39-.63-1.13-.13-2.63,1.01-3.26s2.64-.13,3.27,1c1.76,3.51,1.63,6.77,.5,11.65-.25,1.25-.38,2.13-.25,3.01,10.31-2.63,22.88-3.01,38.46,0,13.32,2.63,23.76,9.27,31.17,18.17,.25,.38,.75,.5,1.26,.5,8.92-1.13,19.48-3.26,30.42-7.14,.63-.25,1.26,0,1.63,.5s.38,1.13,0,1.63c-4.02,4.38-11.82,11.53-23.63,17.16-.63,.38-1.01,1.13-.63,1.75,8.17,18.79,7.29,41.84-2.14,59.88,3.52,2,5.66,6.01,5.53,9.4,0,1.63,.38,3.38,1.63,4.64,1.38,1.38,3.65,2,7.16,1.38,1.26-.25,2.51,.75,2.77,2s-.75,2.51-2.01,2.76c-5.66,.88-9.18-.63-11.31-2.76-2.26-2.26-3.14-5.39-3.02-8.14,0-1.88-1.13-4.13-3.14-5.14-4.4,6.89-10.06,12.9-17.22,17.29-.38,.25-.5,.5-.63,.88-1.63,7.52-2.64,17.41-.63,28.06,.13,.63-.13,1.25-.75,1.5-.5,.25-1.26,.13-1.63-.38-3.39-4.38-8.42-12.15-10.94-22.55-.13-.75-.88-1.13-1.63-1-6.41,1.38-13.45,1.88-21.12,1,0,0,10.06,10.52,17.09,39.46,2.39-.5,5.03-.25,8.3,.38,3.39,.63,4.4-.13,6.66-1.75,1.13-.75,2.64-.5,3.39,.63s.5,2.63-.63,3.38c-3.52,2.38-5.28,3.51-10.43,2.51-2.51-.5-4.52-.88-6.28-.38,.75,3.76,1.51,7.77,2.26,12.03h-84.47l-.25-.13c-31.05-16.04-39.09-41.34-76.04-50.61-.5-.13-1.01,0-1.38,.38s-.5,.88-.25,1.38c3.27,9.27,9.05,21.67,19.11,32.45,.5,.5,.5,1.13,.13,1.63s-1.01,.75-1.63,.5c-9.18-4.26-26.4-15.03-36.58-38.21-.25-.5-.75-.75-1.26-.88-6.28,0-13.07,.5-20.74,1.63-24.89,3.63-33.94,17.41-35.7,50.99l-.13,.75h-16.09s-4.52-22.55,1.89-49.24c-1.51-.25-2.89-1-3.9-1.88-.63-.63-1.51-1.13-2.51-1.13-1.13,0-2.26,.88-3.39,2.63-.75,1.13-2.26,1.38-3.39,.63-1.13-.75-1.38-2.26-.63-3.38,2.39-3.51,4.9-4.64,7.16-4.76,2.39-.13,4.52,1,6.03,2.38,.5,.38,1.13,.75,1.89,.75,1.01-3.63,2.26-7.39,3.77-11.15-2.39-1.13-4.4-3.01-6.79-5.89-2.14-2.63-3.52-2.63-6.28-2.88-1.38-.13-2.26-1.25-2.14-2.63s1.26-2.26,2.64-2.13c4.27,.38,6.28,.63,9.55,4.64,1.76,2.13,3.14,3.63,4.9,4.51,3.65-8.02,8.55-15.91,14.96-23.43,1.63-1.88,3.39-3.76,5.15-5.51,.38-.38,.5-.75,.38-1.25s-.38-.88-.88-1c-4.9-1.75-8.8-3.63-11.56-5.14-.5-.38-.75-1-.63-1.5,.13-.63,.75-1,1.38-1,4.52,.13,8.8,0,13.07-.25,.63,0,1.13-.5,1.26-1s-.13-1.13-.5-1.5c-8.67-5.76-14.45-11.9-17.6-15.79-.38-.5-.38-1.13,0-1.63s1.01-.63,1.63-.38c17.35,7.77,34.31,10.52,44.37,11.4,.25,0,.38,0,.63-.13,10.94-4.13,22.75-6.64,34.57-7.77-.63-1.5-.88-2.88-.88-4.13,0-3.13,1.76-5.89,3.77-7.77,2.26-2.13,2.89-7.27-1.63-9.4-1.26-.5-1.76-2-1.26-3.13,.5-1.25,2.01-1.75,3.14-1.25,8.3,3.76,7.16,13.28,2.89,17.29-1.13,1.13-2.14,2.63-2.26,4.38,0,1.13,.38,2.38,1.38,3.63,14.2-.88,28.41,0,41.23,2.51,.13-2.26,.88-4.01,3.39-6.64,2.51-2.63,4.02-4.51,4.15-7.27,.13-1.38,1.26-2.38,2.51-2.26,1.38,.13,2.39,1.25,2.26,2.51-.25,3.88-2.01,6.64-5.4,10.27-1.63,1.75-2.01,2.88-2.14,4.38,9.05,2,17.35,4.76,24.38,8.14,0,0,.63-32.32,22.12-51.74-4.02-1.5-7.79-6.14-5.15-11.78,.5-1.25,2.01-1.75,3.14-1.25,1.26,.5,1.76,2,1.26,3.13-1.38,3.13,1.26,5.51,3.39,5.51,.75,0,1.51,.13,2.26,.38,3.9-2.26,8.17-4.51,13.07-6.14h0Z"/><g><path class="cls-1" d="M365.06,102.86s2.14,1,4.65,3.01c1.26,1,2.64,2.26,3.9,3.88,.63,.75,1.38,1.63,2.01,2.63,1.26,2,2.51,4.26,3.14,7.14,.13,1,1.01,1.63,2.01,1.5s1.63-1,1.51-2c-.38-3.51-1.26-6.39-2.64-8.89-.63-1.25-1.38-2.38-2.26-3.38-1.63-1.88-3.39-3.26-5.03-4.38-3.39-2.13-6.03-2.76-6.03-2.76-.88-.25-1.89,.25-2.26,1.13-.5,.88,0,1.88,1.01,2.13Z"/><path class="cls-1" d="M221.39,161.5s.88,.25,2.51,.38c.75,.13,1.51,.25,2.51,.25h1.51c1.13,0,2.26-.25,3.65-.25,1.01,.13,1.89-.63,1.89-1.63,.13-1-.63-1.88-1.63-1.88-1.26-.38-2.51-.63-3.65-.75-.5-.13-1.13-.13-1.63-.13-1.01,0-1.89,0-2.64,.13-1.76,.13-2.64,.38-2.64,.38-1.01,0-1.76,.88-1.76,1.88,.13,.88,1.01,1.63,1.89,1.63h0Z"/><path class="cls-1" d="M241.75,163c5.4,.88,11.31,2.38,17.35,4.26,2.26,.75,4.52,1.5,6.66,2.26,1.51,.5,2.89,1.13,4.4,1.75,6.03,2.51,11.82,5.64,16.72,9.9,.75,.63,1.89,.63,2.51-.13s.63-1.88-.13-2.51c-4.27-4.26-9.43-7.77-14.83-10.52-2.26-1.13-4.65-2.26-7.16-3.13-4.15-1.5-8.3-2.63-12.44-3.51-4.4-1-8.67-1.5-12.7-2-1.01-.13-1.89,.5-2.01,1.5,0,1,.63,2,1.63,2.13Z"/><path class="cls-1" d="M233.58,150.22s4.27,.13,10.31,1c1.26,.25,2.64,.38,4.15,.63,.88,.13,1.76,.25,2.77,.5,3.52,.63,7.42,1.5,11.06,2.88,.88,.38,2.01,0,2.39-.88s0-2-.88-2.38c-3.27-1.63-6.66-3.01-10.06-3.88-1.51-.38-3.02-.75-4.52-1-2.77-.5-5.4-.63-7.67-.63-4.65-.13-7.67,.25-7.67,.25-1.01,0-1.76,.88-1.63,1.88,0,1,.75,1.75,1.76,1.63h0Z"/><path class="cls-1" d="M262.75,187.93s3.39,1.13,8.17,4.13c2.26,1.38,4.78,3.26,7.42,5.39,1.76,1.5,3.52,3.13,5.4,5.01,2.39,2.51,4.78,5.39,6.79,8.77l2.51,4.26c.38,.88,1.51,1.25,2.39,.88s1.26-1.5,.88-2.38-.75-1.63-1.13-2.38-.75-1.63-1.13-2.38c-2.01-3.76-4.27-7.14-6.79-9.9-1.89-2.13-3.77-4.01-5.78-5.64-2.89-2.38-5.78-4.13-8.42-5.51-5.4-2.88-9.43-3.76-9.43-3.76-1.01-.25-1.89,.25-2.14,1.25s.25,1.88,1.26,2.26Z"/><path class="cls-1" d="M351.11,108.25s1.76,.25,3.77,1.25c.5,.25,.88,.38,1.38,.75,.25,.13,.63,.25,.88,.5,1.13,.63,2.39,1.5,3.39,2.76,.5,.88,1.63,1.13,2.39,.63,.88-.5,1.13-1.63,.63-2.38-.88-1.88-2.01-3.26-3.14-4.38-.63-.5-1.26-1-2.01-1.38-1.26-.63-2.64-1-3.77-1.13-2.26-.38-3.9,0-3.9,0-1.01,0-1.76,.88-1.63,1.88,.13,.75,1.01,1.5,2.01,1.5h0Z"/><path class="cls-1" d="M354.63,156.23c-.88-.25-1.51-1.13-1.26-2.13s1.13-1.63,2.26-1.38c0,0,.5-.13,1.51,0,.38,0,.88,.13,1.51,.38,.25,.13,.5,.25,.75,.5,.5,.38,1.01,.88,1.51,1.38,.88,.5,1.13,1.63,.63,2.38-.5,.88-1.63,1.13-2.39,.63-.63-.13-1.13-.13-1.76-.25-.25,0-.5-.13-.63-.25-.38-.13-.75-.38-1.01-.63-.75-.38-1.13-.75-1.13-.63h0Z"/><path class="cls-1" d="M365.81,162.87c1.01,1.13,1.76,2.51,2.64,4.01,.25,.38,.5,.88,.75,1.38,.25,.38,.5,.88,.88,1.38,.5,1,1.13,1.88,1.63,3.01,.25,1,1.26,1.5,2.14,1.25,1.01-.25,1.51-1.25,1.26-2.13-.25-1.63-.63-3.13-1.13-4.64-.25-.63-.5-1.25-.88-1.88-.5-.75-1.01-1.5-1.63-2.13-1.01-1-2.01-1.88-3.02-2.63-.75-.63-1.89-.63-2.51,.13-.88,.38-.88,1.5-.13,2.26h0Z"/></g><path class="cls-2" d="M369.84,253.08H118.2c-1.38,0-2.39,1.13-2.39,2.38,0,1.38,1.13,2.38,2.39,2.38h251.64c1.38,0,2.39-1.13,2.39-2.38,0-1.38-1.13-2.38-2.39-2.38Z"/><path class="cls-1" d="M354.5,203.72c.38,.5,.75,1.13,1.13,1.75l-.13-.25c-.13-.13-.25-.38-.38-.5l-.63-1Zm-2.89-4.51c-.63-1.13-1.38-2.13-2.01-3.26-1.38-2.26-2.77-4.38-4.27-6.51-.63-.75-.38-1.88,.38-2.51s1.89-.38,2.51,.38c1.89,2.38,3.9,4.89,5.78,7.39,1.13,1.63,2.26,3.13,3.39,4.89-1.89,0-3.77-.13-5.78-.38h0Zm-64.23-63.27c.5,.13,.88,.38,1.38,.63,.88,.38,1.76,.88,2.64,1.38,1.89,1,3.77,2.26,6.03,3.63,.88,.5,1.26,1.5,.75,2.38s-1.51,1.25-2.39,.75c-2.26-1-4.4-1.75-6.28-2.51-.88-.38-1.76-.75-2.51-1,0-1,.13-2.76,.38-5.26h0Z"/></g><g transform="translate(450.0 1382.5) rotate(0.0 351.25 263.75)  scale(3.0025858568589316 3.007411630558723)"><path class="cls-1" d="M234.96,774.86s-63.82-3.83-99.61-83.44c-6.88-16.08-10.32-37.64-11.97-58.82-.38-4.72-4.71-10.59-4.84-15.31-.25-4.85,4.84-14.42,4.84-19.01-.38-27.05,.25-42.1,.25-42.1h239.61v79.23l-25.48,43.51c.13,23.09-49.93,95.95-102.8,95.95h0Z"/><path class="cls-3" d="M363.62,641.66c-9.68,28.07-25.73,37.13-25.73,37.13,6.75-21.56,6.5-40.57,6.5-40.57,0,0,10.95-4.72,10.95-19.01s-9.81-18.5-9.81-18.5c-10.95-3.96-23.18,.26-29.17,10.08-20.38,32.66-15.8,64.56-11.46,80.25,.25,.89-.13,1.79-1.02,2.3-.89,.38-1.78,.13-2.42-.64-9.17-13.01-22.67-40.19-8.66-74.51,19.74-48.48-10.95-62.14-10.95-62.14h85.6c.76,4.85,1.4,9.7,1.91,14.16,2.93-1.28,6.5-1.02,8.79,.51,1.02,.64,2.42,1.15,3.69,.77,1.4-.38,2.68-1.66,3.82-4.21,.51-1.28,1.91-1.79,3.18-1.28s1.78,1.91,1.27,3.19c-1.91,4.59-4.59,6.51-7.13,7.14-2.68,.64-5.35-.13-7.52-1.4-1.53-1.02-4.33-.89-5.73,1.02,.25,2.3,.38,4.59,.51,6.76v.26c2.42,7.27,7.39,17.61,17.58,23.99,.38,.26,.64,.77,.51,1.28s-.51,.89-1.02,.89c-3.69,0-9.55-.64-15.41-3.44-.38-.13-.76-.13-1.15,0-.38,.26-.51,.51-.64,.89-.76,11.87-2.68,21.82-5.22,30.37,1.91,.89,3.82,2.42,5.99,4.47,2.55,2.42,3.82,2.3,6.62,2.17,1.4,0,2.42,1.02,2.55,2.42,0,1.4-1.02,2.42-2.42,2.55-4.33,.13-6.37,.13-10.19-3.57-1.27-1.4-2.55-2.55-3.82-3.32h0Z"/><path class="cls-1" d="M345.53,572.12s.64,1.79,1.27,4.72c.25,1.4,.51,3.06,.64,4.98,.13,.89,.13,1.91,.25,2.93,.13,2.17,.13,4.47-.25,7.14-.25,1.02,.38,1.91,1.4,2.17s1.91-.38,2.17-1.4c.76-2.81,1.27-5.36,1.4-7.78,.13-1.15,.13-2.3,0-3.44-.25-2.17-.64-4.08-1.15-5.61-1.15-3.44-2.42-5.36-2.42-5.36-.51-.89-1.53-1.15-2.42-.77-1.02,.38-1.4,1.53-.89,2.42h0Z"/><path class="cls-1" d="M334.19,566.12l1.78,7.53c-.13,1.02,.64,1.91,1.66,1.91,1.02,.13,1.91-.64,1.91-1.66,.25-1.28,.38-2.55,.38-3.57,0-.51-.13-1.15-.25-1.53-.25-1.02-.64-1.79-1.02-2.42-.89-1.53-1.66-2.3-1.66-2.3-.64-.77-1.78-.89-2.55-.38s-.89,1.66-.25,2.42Z"/><path class="cls-3" d="M112.03,571.61c-3.31-10.59-3.44-15.44-3.44-15.44h16.31c-1.27,10.72-1.27,44.02-1.27,44.02-4.59-9.7-7.9-17.61-10.06-23.86-3.18,.89-6.75,0-8.79-1.91-.89-.77-2.17-1.53-3.57-1.4-1.53,.13-2.93,1.15-4.46,3.57-.76,1.15-2.29,1.53-3.31,.77-1.15-.77-1.53-2.3-.76-3.32,2.68-4.21,5.6-5.61,8.15-5.87,2.8-.26,5.35,1.02,7.13,2.55,1.02,.77,2.68,1.15,4.08,.89Z"/><g><path class="cls-4" d="M331.51,689.76c-22.42,57.54-74.65,82.8-97.32,82.8-10.83,0-28.79-6.63-46.88-19.65-27.51-19.65-55.54-53.97-60-102.33-.13-1.4-1.27-2.3-2.68-2.17s-2.29,1.28-2.17,2.68c4.71,50.01,33.63,85.48,62.04,105.9,19.23,13.78,38.34,20.54,49.81,20.54,23.57,0,78.6-25.77,101.91-85.87,.51-1.28-.13-2.68-1.4-3.19-1.4-.51-2.8,0-3.31,1.28h0Z"/><path class="cls-4" d="M188.46,643.19v-17.35c0-1.4,1.15-2.42,2.42-2.42,1.4,0,2.42,1.15,2.42,2.42v16.59h.76c1.4,.13,2.29,1.28,2.17,2.68s-1.27,2.3-2.68,2.17h-.64c-2.29,0-4.84,1.02-6.88,2.68-1.91,1.53-3.31,3.44-3.31,5.74s1.4,4.21,3.31,5.74c2.04,1.66,4.59,2.68,6.88,2.68h.64c1.4-.13,2.55,.89,2.68,2.17,.13,1.4-.89,2.55-2.17,2.68h-1.15c-3.95,0-8.53-2.04-11.46-5.23-2.17-2.3-3.44-5.1-3.44-8.04s1.4-5.87,3.44-8.04c1.91-2.04,4.46-3.57,7.01-4.47h0Z"/><ellipse class="cls-4" cx="141.59" cy="617.29" rx="3.69" ry="3.7"/><ellipse class="cls-4" cx="232.67" cy="617.29" rx="3.69" ry="3.7"/><path class="cls-4" d="M170.88,697.03c-.51,0-.89-.26-1.15-.77s-.13-1.02,.13-1.4c3.44-3.7,9.68-7.91,14.27-7.91,2.93,0,5.6,1.28,7.39,3.32l.13,.13c0,.13,.13,.13,.13,.26,1.53,1.79,2.93,1.91,4.33,.38,.13-.26,.38-.38,.51-.64,1.78-2.04,4.59-3.44,7.52-3.44,4.59,0,10.83,4.21,14.27,7.91,.25,.38,.38,.89,.13,1.4-.25,.38-.64,.77-1.15,.77h-46.49Z"/><path class="cls-4" d="M213.94,697.03c-4.08,8.68-14.9,12.89-19.87,12.89s-15.67-4.59-19.87-12.89h39.74Z"/><ellipse class="cls-4" cx="340.69" cy="620.6" rx="3.06" ry="6.89"/></g><path class="cls-2" d="M365.78,553.75H110.76c-1.4,0-2.42,1.15-2.42,2.42,0,1.4,1.15,2.42,2.42,2.42h255.02c1.4,0,2.42-1.15,2.42-2.42,0-1.4-1.15-2.42-2.42-2.42Z"/><path class="cls-3" d="M131.65,581.18s5.35,.13,15.92,.64c6.11,.26,14.14,.64,23.82,1.28,2.04,0,3.69-1.66,3.69-3.7s-1.66-3.7-3.69-3.7c-9.81,.38-17.71,.77-23.95,1.02-10.7,.51-15.92,.89-15.92,.89-1.02,0-1.78,.77-1.66,1.79s.89,1.79,1.78,1.79Z"/><path class="cls-3" d="M261.33,577.61l-39.87-1.91c-2.04,0-3.69,1.66-3.69,3.7s1.66,3.7,3.69,3.7l39.74-1.91c1.02,0,1.78-.77,1.78-1.79,.13-1.02-.64-1.79-1.66-1.79h0Z"/><path class="cls-2" d="M172.79,615.5c2.68-6.76,10.32-11.48,19.23-11.48,6.37,0,12.1,2.42,15.92,6.38,.89,1.02,2.42,1.02,3.44,.13s1.02-2.42,.13-3.44c-4.59-4.85-11.59-7.91-19.36-7.91-11.08,0-20.38,6.12-23.82,14.67-.51,1.28,.13,2.68,1.4,3.19,1.15,.38,2.55-.26,3.06-1.53h0Z"/><path class="cls-2" d="M152.8,590.24h-12.99c-13.25,.89-23.69,12.63-23.69,26.79s10.45,26.03,23.69,27.05c0,0,.38,0,.51,0h12.61c13.88,0,25.35-12,25.35-26.93s-11.46-26.92-25.48-26.92Zm-11.08,49.25c-11.4,0-20.64-9.94-20.64-22.2s9.24-22.2,20.64-22.2,20.64,9.94,20.64,22.2-9.24,22.2-20.64,22.2Z"/><path class="cls-2" d="M243.75,590.24h-12.99c-13.25,.89-23.69,12.63-23.69,26.79s10.45,26.03,23.69,27.05c0,0,.38,0,.51,0h12.61c13.88,0,25.35-12,25.35-26.93s-11.46-26.92-25.48-26.92Zm-11.08,49.25c-11.4,0-20.64-9.94-20.64-22.2s9.24-22.2,20.64-22.2,20.64,9.94,20.64,22.2-9.24,22.2-20.64,22.2h0Z"/><path class="cls-2" d="M323.36,597.51h-63.18c-1.4,0-2.42,1.15-2.42,2.42,0,1.4,1.15,2.42,2.42,2.42h63.18c1.4,0,2.42-1.15,2.42-2.42s-1.02-2.42-2.42-2.42h0Z"/></g><g transform="translate(970.0 1570.0) rotate(0.0 66.25 57.5)  scale(2.9917135180293073 3.007243534426401)"><path class="cls-2" d="M362.41,677.11l-16.63-28.45c-.63-1.15-.25-2.68,.89-3.32s2.67-.26,3.3,.89l18.78,32.15c.38,.77,.51,1.66,0,2.42-.38,.77-1.27,1.28-2.16,1.28h-51.28c-.89,0-1.65-.51-2.16-1.28-.38-.77-.38-1.66,0-2.42l25.64-43.89c.63-1.15,2.16-1.53,3.3-.89s1.52,2.17,.89,3.32l-23.48,40.19h42.9Z"/></g><g transform="translate(1467.5 1532.5) rotate(0.0 25.0 25.0)  scale(1.0154964762272274 1.0154758519842397)"><circle class="cls-2" cx="534.55" cy="627.99" r="10.61"/></g><g transform="translate(2370.0 432.5) rotate(-22.15766386121572 -468.75 350.0)  scale(-5.782361177072861 5.747220808223452)"><path class="cls-2" d="M875.3,386.94l-17.24,10.9c-15.19,9.6-35.26,5.16-44.84-9.92l-66.12-104.08,52.42-33.15,78.61,123.74c2.68,4.22,1.41,9.81-2.84,12.5h0Z"/><path class="cls-4" d="M518.62,215.98c3.94-1.61,8.16-2.21,12.55-1.97l.11-.03,157.43,1.82,5.98-2.44,116.7-47.52c8.73-3.55,19.47,.76,28.85,10.24,1.47-1.16,3.09-2.14,4.88-2.87,12.43-5.07,27.47,2.99,33.58,17.99s.98,31.27-11.45,36.33c-1.79,.73-3.63,1.16-5.5,1.36-.09,13.34-4.76,23.93-13.49,27.49l-116.86,47.59-5.83,2.37-110.71,110.55-.06,.03c-3.12,3.62-6.8,6.39-11.05,8.12-28.08,11.43-69.9-26.1-93.41-83.83-23.51-57.73-19.81-113.8,8.27-125.24h0Z"/><path class="cls-2" d="M517.24,338.41c21.8,53.54,60.17,88.51,85.69,78.12,18.51-7.54,18-55.1-3.8-108.64-21.8-53.54-57.31-92.5-75.15-85.23-25.52,10.39-28.54,62.22-6.74,115.76Z"/><path class="cls-2" d="M723.32,310.13c1.54-.63,2.51-2.23,2.26-3.93-2.37-16.08-6.55-30.92-13.55-48.13-6.73-16.53-15.94-33-24.03-42.96-1.27-1.57-3.6-1.8-5.17-.53-1.58,1.27-1.83,3.58-.56,5.15,7.67,9.45,16.46,25.21,22.94,41.12,6.78,16.64,10.81,30.96,13.09,46.44,.29,2,2.16,3.37,4.17,3.07,.3-.04,.58-.12,.85-.23h0Z"/><ellipse class="cls-3" cx="580.47" cy="312.67" rx="11.13" ry="29.97" transform="translate(-75.06 242.02) rotate(-22.16)"/><g><path class="cls-2" d="M766.2,271.37c14.31-5.83,21.35-22.38,15.55-36.61-5.79-14.23-22.39-21.16-36.7-15.33-14.31,5.83-21.35,22.38-15.55,36.61,5.79,14.23,22.39,21.16,36.7,15.33h0Zm-17.93-44.03c10-4.07,21.49,.73,25.53,10.66,4.05,9.94-.82,21.4-10.82,25.47-10,4.07-21.49-.73-25.53-10.66-4.05-9.94,.82-21.4,10.82-25.47Z"/><ellipse class="cls-2" cx="755.62" cy="245.4" rx="7.36" ry="7.31" transform="translate(-36.75 303.11) rotate(-22.16)"/><ellipse class="cls-2" cx="824.43" cy="217.37" rx="7.36" ry="7.31" transform="translate(-21.1 326.99) rotate(-22.16)"/><path class="cls-2" d="M714.43,266.91l20.95-8.53c2.05-.84,2.76-3.23,1.93-5.26-.92-2.26-3.21-3.17-5.06-2.42l-20.95,8.53c-2.05,.84-2.76,3.23-1.93,5.26,.83,2.03,3,3.25,5.06,2.42Z"/><path class="cls-2" d="M807.99,256.01l54.9-22.36c2.27-.93,3.13-3.38,2.3-5.41-.83-2.03-3.38-3.1-5.43-2.27l-53.31,21.71-24.8-4.12c-2.23-.93-4.73,.08-5.45,2.22-.95,2.23,.06,4.71,2.21,5.42l26.39,4.79c.96,.4,2.05,.48,3.19,.02Z"/><path class="cls-2" d="M576.8,234.24c1.76-.72,3.02-2.43,3.06-4.44,.05-2.7-2.1-4.91-4.8-4.96l-4.06-.07c-2.71-.05-4.94,2.1-5,4.8-.06,2.7,2.09,4.91,4.8,4.96l4.07,.07c.68,0,1.34-.12,1.93-.36Z"/><path class="cls-2" d="M667.94,235.73c1.76-.72,3.02-2.43,3.06-4.44,.06-2.7-2.09-4.91-4.8-4.96l-67.2-1.1c-2.71-.05-4.94,2.1-5,4.8-.06,2.7,2.09,4.91,4.8,4.96l67.2,1.1c.69,.01,1.34-.12,1.94-.36h0Z"/><path class="cls-2" d="M863.15,233.28c1.32-.54,2.26-1.81,2.3-3.32,.24-9.8-1.88-20.47-6.11-30.86-4.21-10.34-10.13-19.43-17.1-26.27-1.44-1.42-3.77-1.4-5.2,.05-1.43,1.44-1.41,3.76,.03,5.18,6.27,6.15,11.62,14.39,15.46,23.82,3.86,9.47,5.79,19.14,5.58,27.94-.05,2.02,1.56,3.69,3.59,3.73,.52,0,1.01-.09,1.46-.28h0Z"/></g><path class="cls-4" d="M750.1,279.12l5.43,13.32c.46,1.13,1.47,2.3,2.74,2.83l68.62,28.66c1.28,.53,2.6,.52,3.96-.03l12.47-5.08-5.57-8.79-8.72,3.55-26.81-11.2,9.33-21.97,5.86-2.39-5.59-8.78-6.18,2.52c-1.14,.46-2.32,1.47-2.86,2.74l-9.82,24.01-28.72-12-5.3-13.01-8.84,5.6Z"/><path class="cls-4" d="M788.61,322.04l-21.36,8.7c-2.5,1.02-5.6-.09-6.7-2.8-1.01-2.48,.11-5.57,2.84-6.69l21.36-8.7c2.5-1.02,5.6,.09,6.7,2.8s-.11,5.57-2.84,6.69h0Z"/><path class="cls-4" d="M796.33,341.01l-21.36,8.7c-2.5,1.02-5.6-.09-6.7-2.8-1.01-2.48,.11-5.57,2.84-6.69l21.36-8.7c2.5-1.02,5.6,.09,6.7,2.8,1.01,2.48-.11,5.57-2.84,6.69h0Z"/></g><g transform="translate(1740.0 1405.0) rotate(0.0 120.0 37.5)  scale(3.9735099337748347 3.9473684210526314)"><path class="cls-2" d="M725.35,563.29h-69.79c-4.21,0-8.26,1.67-11.29,4.69-3.03,3.01-4.72,7.03-4.72,11.22s1.69,8.21,4.72,11.22c3.03,3.01,7.08,4.69,11.29,4.69h69.79c4.21,0,8.26-1.67,11.29-4.69s4.72-7.03,4.72-11.22-1.69-8.21-4.72-11.22-7.08-4.69-11.29-4.69Z"/></g><g transform="translate(1065.0 930.0) rotate(0.0 21.25 21.25)  scale(2.7960526315789473 2.7960526315789473)"><path class="cls-1" d="M360.06,368.66c.24-2.97,.47-5.22,.47-5.22,0-.95,.71-1.66,1.66-1.66s1.66,.71,1.66,1.66c0,0,.36,2.37,.47,5.22,.59,0,1.07,.12,1.54,.12,2.14,.12,3.68,.36,3.68,.36,.95,0,1.66,.71,1.66,1.66s-.71,1.66-1.66,1.66c0,0-1.54,.24-3.68,.36-.47,0-.95,.12-1.54,.12,0,.59-.12,1.07-.12,1.54-.12,2.14-.36,3.68-.36,3.68,0,.95-.71,1.66-1.66,1.66s-1.66-.71-1.66-1.66c0,0-.24-1.54-.36-3.68,0-.47-.12-1.07-.12-1.54-2.85-.24-5.22-.47-5.22-.47-.95,0-1.66-.71-1.66-1.66s.71-1.66,1.66-1.66c0,0,2.25-.36,5.22-.47Z"/></g><g transform="translate(1110.0 797.5) rotate(0.0 13.75 13.75)  scale(2.696078431372549 2.696078431372549)"><path class="cls-1" d="M376.16,309.45c.23-1.26,.34-2.29,.34-2.29,0-.92,.69-1.6,1.6-1.6s1.6,.69,1.6,1.6c0,0,.23,.92,.34,2.29h.11c1.26,.11,2.17,.34,2.17,.34,.92,0,1.6,.69,1.6,1.6s-.69,1.6-1.6,1.6c0,0-.92,.23-2.17,.34h-.11v.11c-.11,1.26-.34,2.17-.34,2.17,0,.92-.69,1.6-1.6,1.6s-1.6-.69-1.6-1.6c0,0-.23-.92-.34-2.17v-.11c-1.26-.23-2.29-.34-2.29-.34-.92,0-1.6-.69-1.6-1.6s.69-1.6,1.6-1.6c0,.11,.92-.11,2.29-.34Z"/></g><g transform="translate(1615.0 1207.5) rotate(0.0 21.25 21.25)  scale(2.7960526315789473 2.7960526315789473)"><path class="cls-1" d="M593.4,486.39c.24-2.97,.47-5.22,.47-5.22,0-.95,.71-1.66,1.66-1.66s1.66,.71,1.66,1.66c0,0,.36,2.37,.47,5.22,.59,0,1.07,.12,1.54,.12,2.14,.12,3.68,.36,3.68,.36,.95,0,1.66,.71,1.66,1.66s-.71,1.66-1.66,1.66c0,0-1.54,.24-3.68,.36-.47,0-.95,.12-1.54,.12,0,.59-.12,1.07-.12,1.54-.12,2.14-.36,3.68-.36,3.68,0,.95-.71,1.66-1.66,1.66s-1.66-.71-1.66-1.66c0,0-.24-1.54-.36-3.68,0-.47-.12-1.07-.12-1.54-2.85-.24-5.22-.47-5.22-.47-.95,0-1.66-.71-1.66-1.66s.71-1.66,1.66-1.66c0,0,2.25-.36,5.22-.47Z"/></g><g transform="translate(1980.0 1022.5) rotate(0.0 21.25 21.25)  scale(2.7960526315789473 2.7960526315789473)"><path class="cls-1" d="M748.25,407.9c.24-2.97,.47-5.22,.47-5.22,0-.95,.71-1.66,1.66-1.66s1.66,.71,1.66,1.66c0,0,.36,2.37,.47,5.22,.59,0,1.07,.12,1.54,.12,2.14,.12,3.68,.36,3.68,.36,.95,0,1.66,.71,1.66,1.66s-.71,1.66-1.66,1.66c0,0-1.54,.24-3.68,.36-.47,0-.95,.12-1.54,.12,0,.59-.12,1.07-.12,1.54-.12,2.14-.36,3.68-.36,3.68,0,.95-.71,1.66-1.66,1.66s-1.66-.71-1.66-1.66c0,0-.24-1.54-.36-3.68,0-.47-.12-1.07-.12-1.54-2.85-.24-5.22-.47-5.22-.47-.95,0-1.66-.71-1.66-1.66s.71-1.66,1.66-1.66c0,0,2.25-.36,5.22-.47Z"/></g><g transform="translate(867.5 700.0) rotate(0.0 13.75 13.75)  scale(2.696078431372549 2.696078431372549)"><path class="cls-1" d="M273.28,268.09c.23-1.26,.34-2.29,.34-2.29,0-.92,.69-1.6,1.6-1.6s1.6,.69,1.6,1.6c0,0,.23,.92,.34,2.29h.11c1.26,.11,2.17,.34,2.17,.34,.92,0,1.6,.69,1.6,1.6s-.69,1.6-1.6,1.6c0,0-.92,.23-2.17,.34h-.11v.11c-.11,1.26-.34,2.17-.34,2.17,0,.92-.69,1.6-1.6,1.6s-1.6-.69-1.6-1.6c0,0-.23-.92-.34-2.17v-.11c-1.26-.23-2.29-.34-2.29-.34-.92,0-1.6-.69-1.6-1.6s.69-1.6,1.6-1.6c0,.11,.92-.11,2.29-.34Z"/></g><g transform="translate(672.5 742.5) rotate(0.0 10.0 10.0)  scale(2.857142857142857 2.857142857142857)"><path class="cls-1" d="M188.97,284.53c.12-.36,.24-.61,.24-.61,0-.97,.73-1.7,1.7-1.7s1.7,.73,1.7,1.7c0,0,.12,.24,.24,.61,.36,.12,.61,.24,.61,.24,.97,0,1.7,.73,1.7,1.7s-.73,1.7-1.7,1.7c0,0-.24,.12-.61,.24-.12,.36-.24,.61-.24,.61,0,.97-.73,1.7-1.7,1.7s-1.7-.73-1.7-1.7c0,0-.12-.24-.24-.61-.36-.12-.61-.24-.61-.24-.97,0-1.7-.73-1.7-1.7s.73-1.7,1.7-1.7c0,0,.24-.12,.61-.24Z"/></g><g transform="translate(1137.5 1222.5) rotate(0.0 13.75 13.75)  scale(2.696078431372549 2.696078431372549)"><path class="cls-1" d="M387.83,489.76c.23-1.26,.34-2.29,.34-2.29,0-.92,.69-1.6,1.6-1.6s1.6,.69,1.6,1.6c0,0,.23,.92,.34,2.29h.11c1.26,.11,2.17,.34,2.17,.34,.92,0,1.6,.69,1.6,1.6s-.69,1.6-1.6,1.6c0,0-.92,.23-2.17,.34h-.11v.11c-.11,1.26-.34,2.17-.34,2.17,0,.92-.69,1.6-1.6,1.6s-1.6-.69-1.6-1.6c0,0-.23-.92-.34-2.17v-.11c-1.26-.23-2.29-.34-2.29-.34-.92,0-1.6-.69-1.6-1.6s.69-1.6,1.6-1.6c0,.11,.92-.11,2.29-.34Z"/></g><g transform="translate(362.5 1120.0) rotate(0.0 10.0 10.0)  scale(2.857142857142857 2.857142857142857)"><path class="cls-1" d="M57.45,444.69c.12-.36,.24-.61,.24-.61,0-.97,.73-1.7,1.7-1.7s1.7,.73,1.7,1.7c0,0,.12,.24,.24,.61,.36,.12,.61,.24,.61,.24,.97,0,1.7,.73,1.7,1.7s-.73,1.7-1.7,1.7c0,0-.24,.12-.61,.24-.12,.36-.24,.61-.24,.61,0,.97-.73,1.7-1.7,1.7s-1.7-.73-1.7-1.7c0,0-.12-.24-.24-.61-.36-.12-.61-.24-.61-.24-.97,0-1.7-.73-1.7-1.7s.73-1.7,1.7-1.7c0,0,.24-.12,.61-.24Z"/></g><g transform="translate(652.5 1347.5) rotate(0.0 10.0 10.0)  scale(2.857142857142857 2.857142857142857)"><path class="cls-1" d="M180.49,541.2c.12-.36,.24-.61,.24-.61,0-.97,.73-1.7,1.7-1.7s1.7,.73,1.7,1.7c0,0,.12,.24,.24,.61,.36,.12,.61,.24,.61,.24,.97,0,1.7,.73,1.7,1.7s-.73,1.7-1.7,1.7c0,0-.24,.12-.61,.24-.12,.36-.24,.61-.24,.61,0,.97-.73,1.7-1.7,1.7s-1.7-.73-1.7-1.7c0,0-.12-.24-.24-.61-.36-.12-.61-.24-.61-.24-.97,0-1.7-.73-1.7-1.7s.73-1.7,1.7-1.7c0,0,.24-.12,.61-.24Z"/></g><g transform="translate(1105.0 712.5) rotate(-21.740021467644684 171.25 287.5)  scale(4.842084428987475 4.834614155750248)"><g><path class="cls-3" d="M481.16,365.47s-11.6,4.18-26.94,10.08c-8.28,3.08-17.52,6.54-26.87,10.27-5.34,2.13-10.88,4.34-15.95,6.58-20.26,8.52-37.1,15.68-37.1,15.68-1.53,.61-2.22,2.21-1.61,3.73s2.21,2.21,3.73,1.6c0,0,17.21-6.2,37.7-14.15,5.15-2.05,10.76-4.07,16.1-6.2,9.35-3.73,18.43-7.57,26.56-11.03,15.19-6.28,26.49-11.22,26.49-11.22,1.53-.61,2.22-2.21,1.61-3.73-.53-1.33-2.21-2.21-3.73-1.6Z"/><path class="cls-3" d="M462.02,338.93s-4.38-1.56-10.6-3.28c-3.24-.92-7.01-2.06-10.71-3.02-2.17-.46-4.42-1.11-6.52-1.37-8.23-1.79-15.33-2.94-15.33-2.94-1.52-.5-3.09,.57-3.59,2.09s.57,3.09,2.09,3.58c0,0,6.63,2.21,14.9,4.66,1.98,.53,4.23,1.18,6.48,1.83,3.7,.95,7.51,1.64,10.87,2.29,6.25,1.26,10.98,2.02,10.98,2.02,1.52,.5,3.09-.57,3.59-2.09,.42-1.71-.64-3.28-2.17-3.77h0Z"/><path class="cls-3" d="M499.87,403.94s-3.09,2.78-7.03,6.78c-2.02,2.13-4.43,4.42-6.76,6.89-1.41,1.45-2.56,3.01-3.78,4.38-4.81,5.67-8.37,10.62-8.37,10.62-1.11,1.1-1,3.05,.3,4.08,1.1,1.11,3.05,.99,4.08-.3,0,0,4.51-4.23,9.74-9.4,1.22-1.37,2.71-2.63,4.05-4.26,2.33-2.47,4.39-5.06,6.34-7.39,3.59-4.3,6-7.69,6-7.69,1.11-1.1,1-3.05-.3-4.08s-3.24-.92-4.27,.38h0Z"/><path class="cls-3" d="M525.04,416.17s-2.15,7.92-4.72,18.66c-1.5,5.68-3.07,12.27-4.45,18.78-.88,3.89-1.58,7.69-2.34,11.31-2.81,14.59-4.85,26.66-4.85,26.66-.31,1.45,.57,3.09,2.28,3.51,1.64,.23,3.09-.57,3.51-2.28,0,0,3.03-11.81,6.56-26.24,.96-3.69,1.84-7.58,2.61-11.2,1.38-6.51,2.69-13.22,3.73-18.93,2.04-10.97,3.46-19.05,3.46-19.05,.31-1.45-.57-3.09-2.28-3.51-1.64-.23-3.28,.65-3.51,2.28h0Z"/><path class="cls-3" d="M483.1,314.39s-6.59-4.88-15.62-11.44c-4.69-3.43-10.25-7.4-15.73-11.17-3.31-2.21-6.63-4.42-9.6-6.33-12.5-8.04-22.82-14.53-22.82-14.53-1.3-1.03-3.09-.54-4.12,.76-.84,1.22-.54,3.09,.76,4.11,0,0,9.79,7.36,21.87,16.01,3.05,2.1,6.25,4.57,9.49,6.6,5.49,3.77,11.16,7.47,16.15,10.56,9.26,6.02,16.27,10.29,16.27,10.29,1.22,.84,3.09,.53,4.12-.76,1.03-1.29,.73-3.16-.76-4.11Z"/></g></g><g transform="translate(2412.5 245.0) rotate(0.0 92.5 125.0)  scale(2.2839506172839505 2.2696323195642303)"><path class="cls-2" d="M999.08,71.19h.48c.58,0,1.16,.19,1.74,.48,1.26,.67,2.03,2.02,2.03,3.47v60.57c0,1.44-.78,2.7-2.03,3.47-9.5,5.39-50,28.69-65.4,37.55-.68,.39-1.36,.58-2.13,.48h-4.94l1.45-2.12c-.29-.58-.39-1.16-.39-1.83v-60.57c0-1.44,.78-2.7,2.03-3.47l60.27-34.57,2.42-3.47h4.46Z"/><path class="cls-4" d="M998.3,135.71c0,1.44-.78,2.7-2.03,3.47-9.5,5.39-50,28.69-65.4,37.55-1.26,.67-2.71,.67-3.97,0s-2.03-2.02-2.03-3.47v-60.57c0-1.44,.78-2.7,2.03-3.47,9.5-5.39,50-28.69,65.4-37.55,1.26-.67,2.71-.67,3.97,0,1.26,.67,2.03,2.02,2.03,3.47v60.57Z"/><path class="cls-2" d="M935.9,125.02l-7.85-11.75c-.78-1.06-.48-2.5,.58-3.27s2.52-.48,3.29,.58l12.21,16.75c3.2-1.93,9.5-5.68,15.89-9.34,7.36-4.24,14.83-8.47,17.34-9.92l13.57-33.12c.48-1.25,1.84-1.83,3.1-1.35s1.84,1.83,1.36,3.08l-8.14,22.44c.48,1.54,1.36,4.33,2.33,7.7,.78,2.79,1.65,5.87,2.42,9.05,.48,1.83,.78,3.76,1.16,5.49,1.36,7.03,2.33,13,2.33,13,.29,1.25-.48,2.5-1.74,2.79s-2.52-.48-2.81-1.73c0,0-1.74-5.68-3.68-12.61-.48-1.73-.97-3.56-1.45-5.49-.68-3.08-1.36-6.16-1.84-8.95l-1.07,2.98c-.29,.67-.78,1.25-1.36,1.54,0,0-9.01,5.3-18.22,10.5-9.11,5.2-18.41,10.21-18.41,10.21-1.26,.77-2.91,.39-3.78-.87l-1.07-1.64c-.19,1.54-.48,3.27-.68,5.1-.48,3.56-1.16,7.61-1.84,11.65-.39,2.31-.97,4.72-1.45,6.93-1.94,8.86-3.68,16.08-3.68,16.08-.19,1.25-1.45,2.12-2.71,1.93s-2.13-1.44-1.94-2.7c0,0,.97-7.41,2.33-16.37,.39-2.31,.68-4.62,1.16-6.93,.78-4.04,1.65-7.99,2.42-11.55,.87-4.62,1.74-8.38,2.23-10.21h0Z"/></g><g transform="translate(2022.5 317.5) rotate(0.0 82.5 26.25)  scale(2.7317880794701987 2.763157894736842)"><path class="cls-2" d="M818.39,101.93h-47.98c-2.9,0-5.68,1.17-7.76,3.28s-3.25,4.92-3.25,7.85,1.16,5.74,3.25,7.85c2.09,2.11,4.87,3.28,7.76,3.28h47.98c2.9,0,5.68-1.17,7.76-3.28,2.09-2.11,3.25-4.92,3.25-7.85s-1.16-5.74-3.25-7.85c-2.09-2.11-4.87-3.28-7.76-3.28Z"/></g><g transform="translate(2110.0 1367.5) rotate(0.0 131.25 198.75)  scale(0.9098786828422877 0.9111706078138323)"><path class="cls-4" d="M905.38,581.19l-48.01-32.36c-.61-.44-1.25-.65-2.09-.76-2.34-.31-4.92-.45-7.29-.7l-41.86,87.53c-1.6,1.03-2.58,2.81-2.58,4.76v70.66c0,.93,.23,1.82,.62,2.59l-2.12,3.09h7.06c1.04,0,2.05-.23,2.97-.77,21.93-12.68,79.52-45.96,92.99-53.77,1.74-1.01,2.82-2.86,2.82-4.91v-70.66c0-1.89-.95-3.67-2.5-4.71h0Z"/><path class="cls-2" d="M898,581l-48.32-33.07c-1.51-1.03-3.58-.53-4.45,1.07l-47.8,87.59h0c-.58,.9-.91,1.96-.91,3.09v70.66c0,2.01,1.08,3.9,2.82,4.91,1.78,1.01,3.94,1.01,5.67,0,21.93-12.68,79.52-45.96,92.99-53.77,1.74-1.01,2.82-2.86,2.82-4.91v-70.66c0-2.01-1.04-3.9-2.82-4.91Z"/><path class="cls-4" d="M871.04,641.82l24.32,17.74c.58,.39,.69,1.2,.27,1.78-.39,.58-1.2,.7-1.78,.27l-43.7-30.92c-1.39,2.63-4.28,8.16-8.03,15.15-2.66,5.03-5.75,10.79-8.99,16.78-12.55,23.39-27.18,50.25-27.18,50.25-.31,.62-1.08,.85-1.7,.5-.62-.31-.85-1.08-.5-1.7,0,0,12.24-23.43,23.86-45.58-1.74-1.31-5.25-4.02-9.26-7.11-1.43-1.12-2.93-2.28-4.4-3.48-2.51-2.05-4.98-4.17-7.14-6.03-4.09-3.48-7.06-6.11-7.06-6.11-.54-.43-.62-1.24-.19-1.78,.42-.54,1.24-.62,1.78-.19,0,0,3.2,2.4,7.41,5.68,2.24,1.74,4.83,3.75,7.33,5.8,1.47,1.2,2.93,2.44,4.28,3.6,3.55,3.02,6.72,5.76,8.45,7.27,.46-.89,.93-1.78,1.39-2.63,3.24-6.03,6.29-11.83,8.96-16.85,5.25-9.86,8.99-16.78,8.99-16.78,.23-.43,.62-.73,1.08-.85s.97,0,1.35,.27l18.34,13.37c1.47-2.98,4.9-10.01,8.88-18.01,1.35-2.71,2.74-5.53,4.21-8.35,2.47-4.79,5.02-9.59,7.26-13.76,4.21-7.89,7.37-13.72,7.37-13.72,.31-.62,1.08-.85,1.7-.54s.85,1.08,.54,1.7c0,0-2.9,5.95-6.83,13.99-2.12,4.25-4.52,9.08-6.99,13.92-1.43,2.82-2.9,5.61-4.32,8.27-4.4,8.23-8.26,15.39-9.69,18.05h0Z"/></g><g transform="translate(465.0 957.5) rotate(0.0 318.75 180.0)  scale(3.535773710482529 3.515625)"><path class="cls-4" d="M137.49,525.73c-21.9-2.98-38.85-21.63-38.85-44.3s16.95-41.31,38.85-44.3v-.45c0-34.9,28.5-63.24,63.6-63.24,13.95,0,26.85,4.47,37.2,12.08,7.65-4.47,16.65-7.16,26.25-7.16,26.55,0,48.45,19.99,51.45,45.64,1.8-.3,3.45-.3,5.4-.3,21.15,0,38.4,17.15,38.4,38.18,0,5.67-1.2,11.04-3.45,15.81,7.65,4.62,12.75,12.83,12.75,22.37,0,14.47-11.7,26.1-26.25,26.1l-205.35-.45Z"/><g><path class="cls-2" d="M313.44,413.12c1.2,3.43,2.1,7.16,2.55,10.89,1.2-.15,2.4-.3,3.6-.3,0,2.98-.15,5.97-.6,8.95s-1.2,5.97-2.25,8.8c-1.95,5.67-4.8,11.04-8.4,15.81-.6,.89-1.95,1.19-3,.6-.9-.6-1.2-1.94-.6-2.98,3-4.62,5.25-9.69,6.75-15.06,.75-2.54,1.35-5.22,1.65-8.05,.45-2.68,.75-5.37,.75-8.2,.15-2.83,0-5.67-.45-8.35,.3-.75,.15-1.34,0-2.09h0Z"/><path class="cls-2" d="M362.64,483.22c-1.5-1.49-3.3-2.83-5.1-4.03-2.1-1.34-4.35-2.24-6.75-2.98s-4.8-1.19-7.35-1.19c-2.85-.15-5.55,.3-8.1,1.04-2.7,.75-5.25,1.94-7.5,3.43-.9,.75-2.25,.45-3-.45s-.45-2.24,.45-2.98c2.55-1.94,5.4-3.58,8.4-4.77,3-1.04,6.3-1.64,9.6-1.79,3.15,0,6.15,.3,9,1.19,1.95,.6,3.9,1.34,5.55,2.39-.45,1.64-1.05,3.13-1.8,4.62,2.55,1.49,4.8,3.28,6.6,5.52h0Z"/><path class="cls-2" d="M137.49,433.1c1.2-.15,2.4-.15,3.6-.15,4.8,0,9.45,.6,13.8,1.79,4.5,1.34,8.85,3.28,12.6,5.82,7.8,5.07,13.95,12.08,18,20.58,.45,1.04,.15,2.39-.9,2.83s-2.4,.15-2.85-.89c-3.9-7.46-9.9-13.57-16.95-17.75-3.45-2.09-7.35-3.73-11.4-4.92-3.9-1.04-7.95-1.79-12.15-1.79-4.35-.15-8.7,.45-12.75,1.49-2.1,.6-4.2,1.34-6.15,2.09,4.65-2.54,9.75-4.18,15.15-4.92v-4.18h0Z"/><path class="cls-2" d="M200.49,482.77c3-1.64,6.45-1.64,9.45-.75,3,.89,5.55,2.83,7.2,5.67s2.1,5.97,1.5,8.95c-.75,3.13-2.55,5.97-5.4,7.76-1.05,.6-1.35,1.94-.75,2.83,.6,1.04,1.95,1.34,2.85,.75,4.2-2.24,7.05-5.82,8.25-9.99,1.35-4.33,.75-8.95-1.5-13.27-2.55-4.18-6.45-6.86-10.8-7.9-4.2-1.04-9-.45-12.9,2.09-1.05,.6-1.35,1.94-.75,2.83,.6,1.34,1.8,1.64,2.85,1.04h0Z"/><path class="cls-2" d="M242.34,383.44c1.2,1.19,2.55,2.54,3.9,4.18,2.4,2.83,4.95,6.41,7.2,10.59,1.2,2.24,2.25,4.47,3.15,7.01,1.8,5.22,3.15,11.04,3.6,17.45,.15,1.19-.75,2.24-1.95,2.39s-2.25-.75-2.4-1.94c-.9-5.97-2.55-11.19-4.5-15.96-.9-2.24-1.95-4.33-3-6.41-.15-.45-.45-.75-.6-1.19-.9,2.54-2.1,4.92-3.75,7.16-2.25,3.13-5.25,5.97-8.7,8.05-3.15,1.79-6.3,2.98-9.75,3.58,.45,1.79,.6,3.58,.45,5.52-.15,2.54-1.05,5.22-2.25,7.61-1.65,2.54-3.75,4.77-6.15,6.26-2.55,1.49-5.4,2.39-8.25,2.68-1.2,.15-2.25-.6-2.4-1.79s.6-2.24,1.8-2.39c2.1-.45,4.2-1.49,5.85-2.83,1.65-1.19,3.15-2.83,4.2-4.77,1.05-1.64,1.8-3.58,2.1-5.37,.3-1.49,.3-2.98,.15-4.47-2.85,0-5.7-.3-8.4-1.19-7.2-2.09-13.65-7.01-17.55-14.02-.6-1.04-.3-2.24,.75-2.83s2.25-.3,2.85,.75c3.6,5.82,9.15,9.4,15.3,11.04,3,.75,6.3,.89,9.45,.45,3-.45,6.15-1.34,9-2.98,3-1.64,5.55-3.73,7.5-6.26,2.1-2.68,3.6-5.67,4.5-8.8,0-.15,.15-.3,.15-.45-.9-1.34-1.8-2.68-2.55-3.88-2.1-2.83-3.9-4.92-5.25-6.41,.6,.3,1.05,.75,1.65,1.04,1.2-.45,2.4-1.04,3.9-1.79h0Z"/><path class="cls-2" d="M295.14,388.36c1.5,1.04,3,2.24,4.35,3.58-1.2,.45-2.4,1.04-3.45,1.79-2.4,1.49-4.5,3.43-6.15,5.82-1.65,2.09-2.7,4.47-3.3,7.01s-.9,5.22-.45,7.76c.3,1.19-.45,2.24-1.65,2.54s-2.25-.45-2.55-1.64c-.9-3.13-1.05-6.41-.45-9.69,.45-3.13,1.8-6.26,3.6-9.1,2.25-3.13,5.1-5.52,8.25-7.16l1.8-.89h0Z"/><path class="cls-2" d="M138.39,525.73c.3-4.33,1.5-8.35,3.3-12.08,1.65-3.43,3.75-6.41,6.45-9.1,1.5-1.64,3.3-2.98,5.25-4.18-1.5-1.64-2.85-3.28-3.9-5.07-1.05-1.79-1.8-3.58-2.4-5.67-.45-1.49-.6-2.98-.75-4.47-.3-3.58,.15-7.01,1.2-10.44,.3-1.19,1.5-1.79,2.55-1.49,1.2,.3,1.8,1.49,1.5,2.54-.45,2.98-.45,5.82,.15,8.8,.15,1.19,.45,2.39,.9,3.58,.6,1.94,1.2,3.88,2.25,5.82,.75,1.49,1.65,2.83,2.55,4.18,4.8-2.24,10.35-3.43,16.05-3.28,1.2,0,2.1,.89,2.1,2.09s-.9,2.09-2.1,2.09c-5.85,.15-11.25,2.09-15.75,5.07-1.95,1.34-3.75,2.83-5.55,4.47-2.85,2.68-5.1,5.97-6.75,9.55-1.05,2.39-1.95,4.92-2.4,7.46l-4.65,.15Z"/><path class="cls-2" d="M317.34,526.17c1.35-5.82,.75-11.78-1.5-17.15-1.2-2.98-3-5.82-5.1-8.35-2.1-2.39-4.65-4.62-7.5-6.26-4.5-2.68-9.45-4.03-14.4-4.18s-9.75,.89-14.25,3.13c-.75,5.82-3.45,10.89-7.5,14.77-4.65,4.47-11.1,7.16-18,7.01-1.2,0-2.1-.89-2.1-2.09s.9-2.09,2.1-2.09c5.7-.15,10.65-2.54,14.25-6.41,3.6-3.73,5.7-8.65,5.7-14.17,.15-5.52-2.1-10.59-5.7-14.17-3.6-3.73-8.7-6.26-14.25-6.41-1.2,0-2.1-.89-2.1-2.09s.9-2.09,2.1-2.09c6.9-.15,13.35,2.54,18,6.86,4.35,4.18,7.05,9.84,7.65,16.11,4.35-2.09,9.15-3.28,14.1-3.43,5.85-.15,11.7,1.34,17.25,4.33,3.45,2.09,6.6,4.62,9,7.46,2.55,2.98,4.5,6.41,5.85,10.14,2.1,6.12,2.55,12.68,1.05,19.09h-4.65Z"/></g></g><g transform="translate(2252.5 182.5) rotate(0.0 20.0 20.0)  scale(0.8123971809817819 0.8123806815873919)"><circle class="cls-2" cx="865.46" cy="53.14" r="8.48"/></g><g transform="translate(922.5 870.0) rotate(0.0 10.0 10.0)  scale(2.857142857142857 2.857142857142857)"><path class="cls-1" d="M295.03,338.63c.12-.36,.24-.61,.24-.61,0-.97,.73-1.7,1.7-1.7s1.7,.73,1.7,1.7c0,0,.12,.24,.24,.61,.36,.12,.61,.24,.61,.24,.97,0,1.7,.73,1.7,1.7s-.73,1.7-1.7,1.7c0,0-.24,.12-.61,.24-.12,.36-.24,.61-.24,.61,0,.97-.73,1.7-1.7,1.7s-1.7-.73-1.7-1.7c0,0-.12-.24-.24-.61-.36-.12-.61-.24-.61-.24-.97,0-1.7-.73-1.7-1.7s.73-1.7,1.7-1.7c0,0,.24-.12,.61-.24Z"/></g><g transform="translate(1800.0 1065.0) rotate(0.0 10.0 10.0)  scale(2.857142857142857 2.857142857142857)"><path class="cls-1" d="M667.31,421.35c.12-.36,.24-.61,.24-.61,0-.97,.73-1.7,1.7-1.7s1.7,.73,1.7,1.7c0,0,.12,.24,.24,.61,.36,.12,.61,.24,.61,.24,.97,0,1.7,.73,1.7,1.7s-.73,1.7-1.7,1.7c0,0-.24,.12-.61,.24-.12,.36-.24,.61-.24,.61,0,.97-.73,1.7-1.7,1.7s-1.7-.73-1.7-1.7c0,0-.12-.24-.24-.61-.36-.12-.61-.24-.61-.24-.97,0-1.7-.73-1.7-1.7s.73-1.7,1.7-1.7c0,0,.24-.12,.61-.24Z"/></g><g transform="translate(2437.5 652.5) rotate(0.0 160.0 230.0)  scale(2.6143790849673203 2.620007746109858)"><path class="cls-2" d="M1071.22,366.96c0,3.78-2,7.22-5.21,9-17.97,10.34-77.64,44.91-106.37,61.58-3.22,1.89-14.42,2.33-17.64,.44s2-5.78,2-9.56v-112.38c0-3.78,2-7.22,5.21-9,17.97-10.34,69.43-45.13,98.16-61.69,3.22-1.89,15.42-1.67,18.63,.22,3.22,1.89,5.21,5.34,5.21,9v112.38Z"/><path class="cls-3" d="M1062.68,366.96c0,3.78-2,7.22-5.21,9-17.97,10.34-77.64,44.91-106.37,61.58-3.22,1.89-7.21,1.89-10.43,0-3.22-1.89-5.21-5.34-5.21-9v-112.38c0-3.78,2-7.22,5.21-9,17.97-10.34,77.64-44.91,106.37-61.58,3.22-1.89,7.21-1.89,10.43,0,3.22,1.89,5.21,5.34,5.21,9v112.38Z"/><path class="cls-2" d="M979.16,343.06l-38.04-26.01c-1.22-.78-1.55-2.56-.78-3.78s2.55-1.56,3.77-.78l57.23,37.12c1.77-3.67,4.77-9.67,8.54-17.12,3.11-6.22,6.65-13.23,10.43-20.67,14.64-28.68,31.83-61.69,31.83-61.69,.67-1.33,2.33-1.89,3.66-1.22,1.33,.67,1.89,2.33,1.22,3.67,0,0-16.19,33.57-30.28,62.47-1.22,2.45-2.44,5-3.66,7.34,2.33,2.56,6.54,7.22,11.2,12.56,1.77,2,3.66,4.11,5.43,6.34,3.11,3.78,5.99,7.56,8.65,10.89,4.88,6.34,8.32,11.12,8.32,11.12,1,1.11,.78,2.89-.33,3.78-1.11,1-2.88,.78-3.77-.33,0,0-3.99-4.33-9.32-10.34-2.77-3.22-5.99-6.78-9.09-10.56-1.77-2.22-3.55-4.45-5.21-6.56-3.44-4.33-6.43-8.45-8.65-11.23-1.33,2.67-2.55,5.22-3.77,7.67-6.1,12.23-10.43,20.67-10.43,20.67-.44,.89-1.33,1.56-2.33,1.89-1,.22-2,.11-2.88-.44l-16.86-11.56c-2.11,5.34-6.21,16.01-11.09,27.9-1.77,4.33-3.66,8.89-5.55,13.45-3.33,7.78-6.77,15.45-9.76,22.23-5.66,12.78-10.09,22.12-10.09,22.12-.55,1.33-2.22,2-3.55,1.44s-2-2.22-1.44-3.56c0,0,3.66-9.67,8.87-22.56,2.77-6.89,5.88-14.67,9.21-22.45,1.89-4.56,3.88-9,5.77-13.34,5.55-12.67,10.54-23.68,12.76-28.46Z"/></g><g transform="translate(1670.0 1300.0) rotate(0.0 96.25 133.75)  scale(3.5127737226277373 3.5762032085561497)"><path class="cls-2" d="M687.2,518.9h.45c.6,0,1.19,.15,1.79,.61,1.34,.76,2.09,2.12,2.09,3.64v64.78c0,1.52-.75,2.88-2.09,3.64-9.84,5.77-52.16,30.65-68.25,40.05-.75,.46-1.49,.61-2.24,.61h-5.22l1.64-2.28c-.3-.61-.45-1.21-.45-1.97v-64.78c0-1.52,.75-2.88,2.09-3.64l62.89-37.02,2.53-3.79h4.77v.15Z"/><path class="cls-3" d="M686.45,587.93c0,1.52-.75,2.88-2.09,3.64-9.84,5.77-52.16,30.65-68.25,40.05-1.34,.76-2.83,.76-4.17,0s-2.09-2.12-2.09-3.64v-64.78c0-1.52,.75-2.88,2.09-3.64,9.84-5.77,52.16-30.65,68.25-40.05,1.34-.76,2.83-.76,4.17,0s2.09,2.12,2.09,3.64v64.78Z"/><path class="cls-2" d="M622.37,576.55l-7.15-8.19c-.89-1.06-.89-2.58,.15-3.49,1.04-.91,2.53-.91,3.43,.15l17.14,18.36c2.83-1.67,8.05-5.01,12.82-7.74,3.87-2.28,7.45-4.4,9.09-5.31,1.34-3.03,5.36-12.14,9.39-21.09,5.07-11.08,10.13-22.15,10.13-22.15,.6-1.21,1.94-1.82,3.28-1.21,1.19,.61,1.79,1.97,1.19,3.34,0,0-4.47,11.23-9.09,22.45l-.45,1.06c.6,1.52,1.49,3.94,2.53,6.83,.89,2.58,1.94,5.46,2.83,8.5,.6,1.67,1.04,3.49,1.34,5.16,1.64,6.68,2.83,12.29,2.83,12.29,.45,1.37-.3,2.73-1.64,3.03-1.34,.46-2.68-.3-2.98-1.67,0,0-2.09-5.31-4.32-11.83-.6-1.67-1.19-3.34-1.64-5.16-.89-3.03-1.64-6.07-2.24-8.65,0-.15-.15-.3-.15-.61-3.13,7.43-5.51,13.35-5.51,13.35-.3,.61-.75,1.21-1.34,1.52,0,0-4.62,2.73-9.98,5.92-7,4.1-15.05,8.65-15.05,8.65-1.19,.76-2.83,.46-3.73-.61l-6.56-7.59c-.3,1.67-.6,3.64-.89,5.77-.6,3.34-1.19,7.28-1.94,11.08-.45,2.28-1.04,4.4-1.49,6.52-2.09,8.34-3.87,15.32-3.87,15.32-.3,1.37-1.64,2.12-2.83,1.97-1.34-.3-2.09-1.67-1.94-2.88,0,0,1.04-7.13,2.53-15.63,.3-2.12,.75-4.4,1.19-6.68,.75-3.79,1.79-7.59,2.53-10.92,1.04-4.55,1.94-8.04,2.38-9.86h0Z"/></g><g transform="translate(1257.5 1085.0) rotate(0.0 10.0 10.0)  scale(2.857142857142857 2.857142857142857)"><path class="cls-1" d="M437.15,429.84c.12-.36,.24-.61,.24-.61,0-.97,.73-1.7,1.7-1.7s1.7,.73,1.7,1.7c0,0,.12,.24,.24,.61,.36,.12,.61,.24,.61,.24,.97,0,1.7,.73,1.7,1.7s-.73,1.7-1.7,1.7c0,0-.24,.12-.61,.24-.12,.36-.24,.61-.24,.61,0,.97-.73,1.7-1.7,1.7s-1.7-.73-1.7-1.7c0,0-.12-.24-.24-.61-.36-.12-.61-.24-.61-.24-.97,0-1.7-.73-1.7-1.7s.73-1.7,1.7-1.7c0,0,.24-.12,.61-.24Z"/></g><g transform="translate(2557.5 547.5) rotate(0.0 20.0 20.0)  scale(0.8123971809817819 0.8123806815873919)"><circle class="cls-2" cx="994.86" cy="207.99" r="8.48"/></g><g transform="translate(2475.0 1250.0) rotate(0.0 82.5 26.25)  scale(2.7317880794701987 2.763157894736842)"><path class="cls-2" d="M1010.36,497.54h-47.98c-2.9,0-5.68,1.17-7.76,3.28s-3.25,4.92-3.25,7.85,1.16,5.74,3.25,7.85c2.09,2.11,4.87,3.28,7.76,3.28h47.98c2.9,0,5.68-1.17,7.76-3.28,2.09-2.11,3.25-4.92,3.25-7.85s-1.16-5.74-3.25-7.85c-2.09-2.11-4.87-3.28-7.76-3.28Z"/></g><g transform="translate(1645.0 157.5) rotate(0.0 106.25 147.5)  scale(2.371651785714286 2.3685266961059814)"><path class="cls-3" d="M689.4,112c0,3.42-1.81,6.53-4.73,8.14-12.38,7.13-46.18,26.63-65.6,37.78-2.92,1.71-6.54,1.71-9.46,0s-4.73-4.82-4.73-8.14V81.25c0-3.42,1.81-6.53,4.73-8.14,12.38-7.13,46.18-26.63,65.6-37.78,2.92-1.71,6.54-1.71,9.46,0,2.92,1.71,4.73,4.82,4.73,8.14V112Z"/><path class="cls-2" d="M683.76,112c0,3.42-1.81,6.53-4.73,8.14-12.38,7.13-46.18,26.63-65.6,37.78-2.92,1.71-6.54,1.71-9.46,0s-4.73-4.82-4.73-8.14V81.25c0-3.42,1.81-6.53,4.73-8.14,12.38-7.13,46.18-26.63,65.6-37.78,2.92-1.71,6.54-1.71,9.46,0,2.92,1.71,4.73,4.82,4.73,8.14V112Z"/><path class="cls-3" d="M642.61,100.74c1.21-2.41,3.02-6.13,5.23-10.45,2.01-4.12,4.43-8.74,6.94-13.67,9.76-18.99,21.33-40.8,21.33-40.8,.6-1.21,2.11-1.71,3.32-1.11s1.71,2.11,1.11,3.32c0,0-10.56,22.31-19.92,41.5-2.41,4.92-4.73,9.65-6.74,13.77-4.02,8.04-6.94,13.67-6.94,13.67-.4,.8-1.21,1.41-2.11,1.71-.91,.2-1.81,.1-2.62-.4l-39.54-27.23c-1.11-.7-1.41-2.31-.7-3.42s2.31-1.41,3.42-.7l37.23,23.81Z"/></g><g transform="translate(885.0 1330.0) rotate(0.0 10.0 10.0)  scale(2.857142857142857 2.857142857142857)"><path class="cls-1" d="M279.12,533.78c.12-.36,.24-.61,.24-.61,0-.97,.73-1.7,1.7-1.7s1.7,.73,1.7,1.7c0,0,.12,.24,.24,.61,.36,.12,.61,.24,.61,.24,.97,0,1.7,.73,1.7,1.7s-.73,1.7-1.7,1.7c0,0-.24,.12-.61,.24-.12,.36-.24,.61-.24,.61,0,.97-.73,1.7-1.7,1.7s-1.7-.73-1.7-1.7c0,0-.12-.24-.24-.61-.36-.12-.61-.24-.61-.24-.97,0-1.7-.73-1.7-1.7s.73-1.7,1.7-1.7c0,0,.24-.12,.61-.24Z"/></g><g transform="translate(267.5 547.5) rotate(0.0 20.0 20.0)  scale(0.8123971809817819 0.8123806815873919)"><circle class="cls-2" cx="23.33" cy="207.99" r="8.48"/></g></g></svg>